<svg xmlns="http://www.w3.org/2000/svg" fill="#1d293d" viewBox="0 0 116 116">
  <rect width="116" height="116" opacity=".32" rx="58" />
  <path fill-rule="evenodd"
    d="M78.83 57.98a20.83 20.83 0 0 1-30.1 18.66 3.4 3.4 0 0 0-2.4-.28L41.7 77.6a2.7 2.7 0 0 1-3.31-3.31l1.24-4.64c.2-.8.1-1.66-.28-2.4a20.83 20.83 0 1 1 39.5-9.28m-29.16 2.08a2.08 2.08 0 1 1 0-4.16 2.08 2.08 0 0 1 0 4.16m6.25-2.08a2.08 2.08 0 1 0 4.16 0 2.08 2.08 0 0 0-4.16 0m8.33 0a2.08 2.08 0 1 0 4.17 0 2.08 2.08 0 0 0-4.17 0"
    clip-rule="evenodd" />
</svg>