<svg width="40" height="40" viewBox="0 0 40 40" fill="currentColor" xmlns="http://www.w3.org/2000/svg">
    <rect width="40" height="40" rx="20" fill-opacity="0.08" />
    <path
        d="M30 16.1622V16.2352C30 17.0952 30 17.5262 29.793 17.8782C29.586 18.2302 29.209 18.4392 28.457 18.8582L27.664 19.2982C28.21 17.4502 28.393 15.4642 28.46 13.7662L28.47 13.5452L28.472 13.4932C29.123 13.7192 29.489 13.8882 29.717 14.2042C30 14.5972 30 15.1192 30 16.1622ZM10 16.1622V16.2352C10 17.0952 10 17.5262 10.207 17.8782C10.414 18.2302 10.791 18.4392 11.543 18.8582L12.337 19.2982C11.79 17.4502 11.607 15.4642 11.54 13.7662L11.53 13.5452L11.529 13.4932C10.877 13.7192 10.511 13.8882 10.283 14.2042C10 14.5972 10 15.1202 10 16.1622Z" />
    <path fill-rule="evenodd" clip-rule="evenodd"
        d="M20 10.0002C21.784 10.0002 23.253 10.1572 24.377 10.3472C25.516 10.5392 26.085 10.6352 26.561 11.2212C27.037 11.8072 27.011 12.4402 26.961 13.7062C26.789 18.0552 25.851 23.4862 20.75 23.9662V27.5002H22.18C22.4111 27.5004 22.635 27.5805 22.8137 27.7271C22.9923 27.8737 23.1147 28.0776 23.16 28.3042L23.35 29.2502H26C26.1989 29.2502 26.3897 29.3293 26.5303 29.4699C26.671 29.6106 26.75 29.8013 26.75 30.0002C26.75 30.1991 26.671 30.3899 26.5303 30.5306C26.3897 30.6712 26.1989 30.7502 26 30.7502H14C13.8011 30.7502 13.6103 30.6712 13.4697 30.5306C13.329 30.3899 13.25 30.1991 13.25 30.0002C13.25 29.8013 13.329 29.6106 13.4697 29.4699C13.6103 29.3293 13.8011 29.2502 14 29.2502H16.65L16.84 28.3042C16.8853 28.0776 17.0077 27.8737 17.1863 27.7271C17.365 27.5805 17.5889 27.5004 17.82 27.5002H19.25V23.9662C14.15 23.4862 13.212 18.0542 13.04 13.7062C12.989 12.4402 12.964 11.8062 13.44 11.2212C13.915 10.6352 14.484 10.5392 15.623 10.3472C17.0698 10.1101 18.5339 9.99404 20 10.0002ZM20.952 14.1992L20.854 14.0232C20.474 13.3402 20.284 13.0002 20 13.0002C19.716 13.0002 19.526 13.3402 19.146 14.0232L19.048 14.1992C18.94 14.3932 18.886 14.4892 18.802 14.5532C18.717 14.6172 18.612 14.6412 18.402 14.6882L18.212 14.7322C17.474 14.8992 17.105 14.9822 17.017 15.2642C16.929 15.5472 17.181 15.8412 17.684 16.4292L17.814 16.5812C17.957 16.7482 18.029 16.8312 18.061 16.9352C18.093 17.0392 18.082 17.1502 18.061 17.3732L18.041 17.5762C17.965 18.3612 17.927 18.7542 18.156 18.9282C18.386 19.1022 18.732 18.9432 19.423 18.6252L19.601 18.5432C19.798 18.4532 19.896 18.4082 20 18.4082C20.104 18.4082 20.202 18.4532 20.399 18.5432L20.577 18.6252C21.268 18.9442 21.614 19.1022 21.844 18.9282C22.074 18.7542 22.035 18.3612 21.959 17.5762L21.939 17.3732C21.918 17.1502 21.907 17.0392 21.939 16.9352C21.971 16.8322 22.043 16.7482 22.186 16.5812L22.316 16.4292C22.819 15.8412 23.071 15.5472 22.983 15.2642C22.895 14.9822 22.526 14.8992 21.788 14.7322L21.598 14.6882C21.388 14.6412 21.283 14.6182 21.198 14.5532C21.114 14.4892 21.06 14.3932 20.952 14.1992Z" />
</svg>