<svg xmlns="http://www.w3.org/2000/svg" fill="currentColor" viewBox="0 0 22 22">
    <path
        d="M19.42 15.56c-.26.6-.88.94-1.54.94h-4.3a2.9 2.9 0 0 0-.54-2.85c.22-1.82.36-3.68.45-5.16.04-.73-.86-.97-1.18-.32-.65 1.32-1.45 3.01-2.15 4.7a2.83 2.83 0 0 0-1.74 3.63h-4.3c-.66 0-1.28-.34-1.54-.94a9.17 9.17 0 1 1 16.83 0"
        opacity=".32" />
    <path
        d="M13.48 8.5c.05-.74-.85-.98-1.17-.33-.65 1.32-1.45 3.01-2.15 4.7a2.8 2.8 0 0 0 .13 5.37c1.47.4 2.97-.49 3.37-1.98a2.8 2.8 0 0 0-.62-2.6c.22-1.83.36-3.7.44-5.17" />
</svg>