<svg xmlns="http://www.w3.org/2000/svg" fill="currentColor" viewBox="0 0 22 22">
    <path fill-rule="evenodd"
        d="M3.78 2.06c1.1-.12 2.92-.23 5.85-.23s4.75.11 5.84.23c.94.1 1.62.79 1.72 1.72.12.98.23 2.45.23 4.47s-.11 3.5-.23 4.47a1.9 1.9 0 0 1-1.72 1.72c-.97.1-2.5.2-4.86.22q-.57.01-.98.41l-1.55 1.57c-.67.69-1.84.3-1.95-.66l-.12-1a.46.46 0 0 0-.44-.4q-1.1-.06-1.79-.14a1.9 1.9 0 0 1-1.72-1.72c-.12-.98-.23-2.45-.23-4.47s.11-3.5.23-4.47a1.9 1.9 0 0 1 1.72-1.72M6.42 5.5a.92.92 0 1 0 0 1.83h6.41a.92.92 0 1 0 0-1.83zm0 4.12a.92.92 0 1 0 0 1.84h3.66a.92.92 0 1 0 0-1.84z"
        clip-rule="evenodd" opacity=".32" />
    <path
        d="M5.5 6.42c0-.51.41-.92.92-.92h6.41a.92.92 0 1 1 0 1.83H6.42a.9.9 0 0 1-.92-.91M5.5 10.54c0-.5.41-.91.92-.91h3.66a.92.92 0 1 1 0 1.83H6.42a.9.9 0 0 1-.92-.92M9.2 15.52l.43-.45q.4-.4.98-.4c2.36-.03 3.9-.13 4.86-.23a1.9 1.9 0 0 0 1.72-1.72q.12-.96.2-2.56.68.04 1.1.09c.58.06 1 .48 1.07 1.05.08.6.15 1.53.15 2.9 0 1.38-.07 2.32-.15 2.92-.07.57-.5.98-1.06 1.05q-.57.06-1.64.12c-.2 0-.39.16-.43.37l-.16.8a.7.7 0 0 1-1.13.37l-1.32-1.17a1.4 1.4 0 0 0-.9-.34c-1.2-.03-2.01-.1-2.54-.15-.57-.07-1-.48-1.07-1.05q-.08-.58-.12-1.6" />
</svg>