<svg xmlns="http://www.w3.org/2000/svg" fill="none" viewBox="0 0 24 24">
    <path fill="url(#a)" d="M5 6.25a.75.75 0 0 0-.49 1.32l7 6c.28.24.7.24.98 0l7-6A.75.75 0 0 0 19 6.25z"
        opacity=".5" />
    <path fill="url(#b)" fill-rule="evenodd"
        d="M4.43 10.51a.75.75 0 0 1 1.06-.08L12 16.01l6.51-5.58a.75.75 0 1 1 .98 1.14l-7 6a.75.75 0 0 1-.98 0l-7-6a.75.75 0 0 1-.08-1.06"
        clip-rule="evenodd" />
    <defs>
        <linearGradient id="a" x1="4.25" x2="10.13" y1="6.25" y2="18.4" gradientUnits="userSpaceOnUse">
            <stop stop-color="#ffac82" />
            <stop offset="1" stop-color="#ff5630" />
        </linearGradient>
        <linearGradient id="b" x1="4.25" x2="10.13" y1="10.25" y2="22.41" gradientUnits="userSpaceOnUse">
            <stop stop-color="#ffac82" />
            <stop offset="1" stop-color="#ff5630" />
        </linearGradient>
    </defs>
</svg>