<svg xmlns="http://www.w3.org/2000/svg" fill="currentColor" viewBox="0 0 20 20">
    <path
        d="M2.5 5.31c0-.4.29-.73.64-.73h2.22c.44-.01.83-.33.98-.8l.03-.08.1-.33q.07-.3.17-.53c.29-.62.8-1.04 1.41-1.15q.23-.04.5-.03h2.9q.28 0 .5.03c.6.1 1.12.53 1.4 1.15q.11.23.19.53l.1.33.02.08c.15.47.61.79 1.05.8h2.15c.35 0 .64.33.64.73s-.29.73-.64.73H3.14c-.35 0-.64-.32-.64-.73" />
    <path fill-rule="evenodd"
        d="M9.66 18.33h.68c2.32 0 3.47 0 4.23-.74.75-.74.83-1.95.98-4.37l.23-3.5c.08-1.3.12-1.97-.26-2.38-.37-.42-1.01-.42-2.29-.42H6.77c-1.28 0-1.92 0-2.3.42s-.33 1.07-.25 2.39l.23 3.49c.15 2.42.23 3.63.98 4.37s1.91.74 4.23.74m-1.12-8.18a.63.63 0 0 0-.68-.59.65.65 0 0 0-.57.72l.42 4.39c.04.36.34.62.68.59s.6-.36.56-.72zm3.6-.59c.35.04.6.36.56.72l-.41 4.39a.63.63 0 0 1-.68.59.65.65 0 0 1-.56-.72l.41-4.4a.63.63 0 0 1 .69-.58"
        clip-rule="evenodd" />
</svg>