<svg xmlns="http://www.w3.org/2000/svg" fill="currentColor" viewBox="0 0 22 22">
    <path
        d="M2.1 18.02c.07.79.59 1.4 1.36 1.57 1.22.26 3.53.58 7.54.58s6.32-.32 7.54-.58a1.74 1.74 0 0 0 1.37-1.57c.12-1.17.26-3.31.26-7.02s-.14-5.85-.26-7.02a1.74 1.74 0 0 0-1.37-1.57A38 38 0 0 0 11 1.83c-4.01 0-6.32.32-7.54.58-.77.16-1.29.78-1.37 1.57A71 71 0 0 0 1.83 11c0 3.7.14 5.85.26 7.02"
        opacity=".32" />
    <path
        d="M12.78 12.7a3.82 3.82 0 1 0-3.56 0 5.3 5.3 0 0 0-3.25 3.85c-.05.25.08.5.33.54.9.16 2.37.33 4.7.33s3.8-.17 4.7-.33c.25-.04.38-.3.33-.54a5.3 5.3 0 0 0-3.25-3.85" />
</svg>